<svg xmlns="http://www.w3.org/2000/svg" xmlns:xlink="http://www.w3.org/1999/xlink" viewBox="0 0 290.87 196.41">
    <defs>
        <style>
            .cls-1{fill:url(#linear-gradient);}.cls-2{fill:url(#linear-gradient-2);}.cls-3{fill:url(#linear-gradient-3);}.cls-4{fill:url(#linear-gradient-4);}.cls-5{fill:url(#linear-gradient-5);}.cls-6{fill:url(#linear-gradient-6);}.cls-7{fill:url(#linear-gradient-7);}.cls-8{fill:url(#linear-gradient-8);}.cls-9{fill:url(#linear-gradient-9);}.cls-10{fill:url(#linear-gradient-10);}.cls-11{fill:url(#radial-gradient);}
        </style>
        <linearGradient id="linear-gradient" x1="106.3" y1="-44.37" x2="94.96" y2="148.97"
                        gradientUnits="userSpaceOnUse">
            <stop offset="0" stop-color="#f0f0f0"/>
            <stop offset="0.21" stop-color="#eaeaea"/>
            <stop offset="0.5" stop-color="#d9d9d9"/>
            <stop offset="0.83" stop-color="#bdbdbd"/>
            <stop offset="1" stop-color="#ababab"/>
        </linearGradient>
        <linearGradient id="linear-gradient-2" x1="730.84" y1="12.69" x2="728.47" y2="45.58"
                        gradientTransform="matrix(-1, 0, 0, 1, 808.67, 0)" gradientUnits="userSpaceOnUse">
            <stop offset="0" stop-color="#fff"/>
            <stop offset="1" stop-color="#f0f0f0"/>
        </linearGradient>
        <linearGradient id="linear-gradient-3" x1="707.51" y1="59.86" x2="708.4" y2="98.22"
                        gradientTransform="matrix(-1, 0, 0, 1, 808.67, 0)" xlink:href="#linear-gradient"/>
        <linearGradient id="linear-gradient-4" x1="679.07" y1="36.48" x2="683.27" y2="42.46"
                        xlink:href="#linear-gradient-2"/>
        <linearGradient id="linear-gradient-5" x1="159.4" y1="111.92" x2="159.89" y2="161.07"
                        xlink:href="#linear-gradient"/>
        <linearGradient id="linear-gradient-6" x1="190.05" y1="36.07" x2="186.77" y2="81.61"
                        gradientTransform="matrix(1, 0, 0, 1, 0, 0)" xlink:href="#linear-gradient-2"/>
        <linearGradient id="linear-gradient-7" x1="157.75" y1="101.39" x2="158.98" y2="154.51"
                        xlink:href="#linear-gradient"/>
        <linearGradient id="linear-gradient-8" x1="118.36" y1="69.01" x2="124.17" y2="77.29"
                        gradientTransform="matrix(1, 0, 0, 1, 0, 0)" xlink:href="#linear-gradient-2"/>
        <linearGradient id="linear-gradient-9" x1="258.43" y1="62.5" x2="134.43" y2="167.5"
                        gradientTransform="translate(8.49 -41.11) rotate(0.78)" gradientUnits="userSpaceOnUse">
            <stop offset="0" stop-color="#feff7f"/>
            <stop offset="0.17" stop-color="#fef679"/>
            <stop offset="0.44" stop-color="#fedf6a"/>
            <stop offset="0.77" stop-color="#ffb952"/>
            <stop offset="1" stop-color="#ff9c3f"/>
        </linearGradient>
        <linearGradient id="linear-gradient-10" x1="232.09" y1="63.41" x2="146.09" y2="198.91"
                        gradientTransform="translate(8.49 -41.11) rotate(0.78)" gradientUnits="userSpaceOnUse">
            <stop offset="0" stop-color="#feffe3"/>
            <stop offset="0.14" stop-color="#fefed2"/>
            <stop offset="0.43" stop-color="#fefca6"/>
            <stop offset="0.82" stop-color="#fff961"/>
            <stop offset="1" stop-color="#fff73f"/>
        </linearGradient>
        <radialGradient id="radial-gradient" cx="304.95" cy="-457.11" r="65.17"
                        gradientTransform="translate(-480.96 235.72) scale(2.05 0.1)" gradientUnits="userSpaceOnUse">
            <stop offset="0" stop-color="#969696"/>
            <stop offset="0" stop-color="#a3a3a3"/>
            <stop offset="0" stop-color="#a1a1a1"/>
            <stop offset="0" stop-color="#9a9a9a"/>
            <stop offset="0.11" stop-color="#ababab"/>
            <stop offset="0.22" stop-color="#b9b9b9"/>
            <stop offset="0.25" stop-color="#bcbcbc"/>
            <stop offset="0.57" stop-color="#e1e1e1"/>
            <stop offset="0.83" stop-color="#f7f7f7"/>
            <stop offset="1" stop-color="#fff"/>
        </radialGradient>
    </defs>
    <title>Asset 7</title>
    <g id="Layer_2" data-name="Layer 2">
        <g id="Layer_1-2" data-name="Layer 1">
            <path class="cls-1"
                  d="M27.69,59.16A28,28,0,0,1,45.45,33.07,33.9,33.9,0,0,1,113,29.9a19.16,19.16,0,0,1,29.34,16.24,19.27,19.27,0,0,1-.15,2.35,20.59,20.59,0,1,1,12.53,38.6,13.56,13.56,0,0,1-2.4.22H55.17a18.76,18.76,0,0,1-3.7-.27C37.73,85.24,27.69,73.39,27.69,59.16Z"/>
            <path class="cls-2"
                  d="M79.28,4.82C64.2,4.82,51.71,16.65,49,30.73a30.35,30.35,0,0,1,60-4.55C104.27,12.1,92.45,4.82,79.28,4.82Z"/>
            <path class="cls-3"
                  d="M56,84.32h95.47a11.65,11.65,0,0,0,2.09-.19h.05c12-1.54,16.58-8.12,18.34-13.28h0c-1.86,8.84-8.55,14.94-17.54,16.3a22.4,22.4,0,0,1-2.94.19H56a19.15,19.15,0,0,1-3.83-.26A26.52,26.52,0,0,1,29.91,70.19C35.08,77.5,40.42,83.86,56,84.32Z"/>
            <path class="cls-4"
                  d="M120.51,30.79a19.62,19.62,0,0,0-5.77.86A16.83,16.83,0,0,1,140,46.2c0,.51,0,1-.07,1.52A19.64,19.64,0,0,0,120.51,30.79Z"/>
            <path class="cls-5"
                  d="M259.48,100.41a38.83,38.83,0,0,0-24.59-36.12,46.94,46.94,0,0,0-93.53-4.39,26.54,26.54,0,0,0-40.63,22.49,26.74,26.74,0,0,0,.21,3.26,28.51,28.51,0,1,0-17.35,53.45,18.59,18.59,0,0,0,3.32.3H221.43a25.93,25.93,0,0,0,5.12-.37C245.57,136.53,259.48,120.12,259.48,100.41Z"/>
            <path class="cls-6"
                  d="M188,25.18c20.88,0,38.17,16.38,41.95,35.88a42,42,0,0,0-83-6.3C153.44,35.25,169.81,25.17,188,25.18Z"/>
            <path class="cls-7"
                  d="M220.33,135.26H88.14a16.12,16.12,0,0,1-2.9-.27h-.07c-16.57-2.13-23-11.24-25.39-18.39h0c2.58,12.25,11.84,20.68,24.29,22.57a31.36,31.36,0,0,0,4.08.26H220.33a26.56,26.56,0,0,0,5.31-.36c14.92-1.75,25.85-10.84,30.77-23.37C249.25,125.81,241.86,134.63,220.33,135.26Z"/>
            <path class="cls-8"
                  d="M131,61.14a27.19,27.19,0,0,1,8,1.19,23.3,23.3,0,0,0-35,20.14c0,.71,0,1.41.1,2.11A27.2,27.2,0,0,1,131,61.14Z"/>
            <path class="cls-9"
                  d="M218.2,55.78c1.4-1.64,4.61-5.31-2.81-4.94l-37.84-.43a4.85,4.85,0,0,0-4.86,3.24l-18.58,55.06c-.6,1.71-2,5.66,1.41,5.8l25.31-.14L152,167.91l59.39-62.54s3-3.06-1.59-2.82l-34.46,1.53Z"/>
            <path class="cls-10"
                  d="M212,57.89c1.34-1.54,2-3.11-2.13-2.55h0l-42.21,50.5c-1.82,2.23.25,2.24,1.36,2.2l35.13-1.26-29.54,32.67,31.56-32.92c.47-.5,1.11-1.58-.74-1.52l-35.11,1.3Z"/>
            <ellipse class="cls-11" cx="145.43" cy="189.33" rx="145.43" ry="7.08"/>
        </g>
    </g>
</svg>