<svg xmlns="http://www.w3.org/2000/svg" xmlns:xlink="http://www.w3.org/1999/xlink" viewBox="0 0 259.63 178.3">
    <defs>
        <style>
            .cls-1{fill:url(#linear-gradient);}.cls-2{fill:url(#linear-gradient-2);}.cls-3{fill:url(#linear-gradient-3);}.cls-4{fill:url(#linear-gradient-4);}.cls-5{fill:url(#linear-gradient-5);}.cls-6{fill:url(#linear-gradient-6);}.cls-7{fill:url(#linear-gradient-7);}.cls-8{fill:url(#linear-gradient-8);}.cls-9{fill:url(#radial-gradient);}.cls-10{fill:url(#radial-gradient-2);}.cls-11{fill:url(#radial-gradient-3);}.cls-12{fill:url(#radial-gradient-4);}
        </style>
        <linearGradient id="linear-gradient" x1="78.6" y1="-44.37" x2="67.27" y2="148.97"
                        gradientUnits="userSpaceOnUse">
            <stop offset="0" stop-color="#f0f0f0"/>
            <stop offset="0.21" stop-color="#eaeaea"/>
            <stop offset="0.5" stop-color="#d9d9d9"/>
            <stop offset="0.83" stop-color="#bdbdbd"/>
            <stop offset="1" stop-color="#ababab"/>
        </linearGradient>
        <linearGradient id="linear-gradient-2" x1="178.25" y1="12.69" x2="175.89" y2="45.58"
                        gradientTransform="matrix(-1, 0, 0, 1, 228.39, 0)" gradientUnits="userSpaceOnUse">
            <stop offset="0" stop-color="#fff"/>
            <stop offset="1" stop-color="#f0f0f0"/>
        </linearGradient>
        <linearGradient id="linear-gradient-3" x1="154.92" y1="59.86" x2="155.81" y2="98.22"
                        gradientTransform="matrix(-1, 0, 0, 1, 228.39, 0)" xlink:href="#linear-gradient"/>
        <linearGradient id="linear-gradient-4" x1="126.48" y1="36.48" x2="130.68" y2="42.45"
                        xlink:href="#linear-gradient-2"/>
        <linearGradient id="linear-gradient-5" x1="139.71" y1="99.92" x2="140.2" y2="149.07"
                        xlink:href="#linear-gradient"/>
        <linearGradient id="linear-gradient-6" x1="170.36" y1="24.07" x2="167.08" y2="69.61"
                        gradientTransform="matrix(1, 0, 0, 1, 0, 0)" xlink:href="#linear-gradient-2"/>
        <linearGradient id="linear-gradient-7" x1="138.05" y1="89.39" x2="139.28" y2="142.51"
                        xlink:href="#linear-gradient"/>
        <linearGradient id="linear-gradient-8" x1="98.66" y1="57.01" x2="104.48" y2="65.29"
                        gradientTransform="matrix(1, 0, 0, 1, 0, 0)" xlink:href="#linear-gradient-2"/>
        <radialGradient id="radial-gradient" cx="158.51" cy="-2658.37" r="65.17"
                        gradientTransform="translate(-153.51 437.52) scale(1.8 0.1)" gradientUnits="userSpaceOnUse">
            <stop offset="0" stop-color="#969696"/>
            <stop offset="0" stop-color="#a3a3a3"/>
            <stop offset="0" stop-color="#a1a1a1"/>
            <stop offset="0" stop-color="#9a9a9a"/>
            <stop offset="0.11" stop-color="#ababab"/>
            <stop offset="0.22" stop-color="#b9b9b9"/>
            <stop offset="0.25" stop-color="#bcbcbc"/>
            <stop offset="0.57" stop-color="#e1e1e1"/>
            <stop offset="0.83" stop-color="#f7f7f7"/>
            <stop offset="1" stop-color="#fff"/>
        </radialGradient>
        <radialGradient id="radial-gradient-2" cx="1691.52" cy="427.44" r="69.33"
                        gradientTransform="translate(-426.21 -11.45) scale(0.33 0.33)" gradientUnits="userSpaceOnUse">
            <stop offset="0" stop-color="#b5ffff"/>
            <stop offset="1" stop-color="#0a96ff"/>
        </radialGradient>
        <radialGradient id="radial-gradient-3" cx="1796.65" cy="302.35" r="54.1" xlink:href="#radial-gradient-2"/>
        <radialGradient id="radial-gradient-4" cx="1617" cy="313.62" r="44.52" xlink:href="#radial-gradient-2"/>
    </defs>
    <title>Asset 5</title>
    <g id="Layer_2" data-name="Layer 2">
        <g id="Layer_1-2" data-name="Layer 1">
            <path class="cls-1"
                  d="M0,59.16A28,28,0,0,1,17.76,33.07,33.9,33.9,0,0,1,85.3,29.9a19.16,19.16,0,0,1,29.34,16.24,19.28,19.28,0,0,1-.15,2.35A20.59,20.59,0,1,1,127,87.1a13.52,13.52,0,0,1-2.4.22H27.48a18.73,18.73,0,0,1-3.7-.27C10,85.24,0,73.39,0,59.16Z"/>
            <path class="cls-2"
                  d="M51.58,4.82C36.5,4.82,24,16.65,21.29,30.73a30.35,30.35,0,0,1,60-4.55C76.58,12.1,64.75,4.82,51.58,4.82Z"/>
            <path class="cls-3"
                  d="M28.27,84.32h95.47a11.65,11.65,0,0,0,2.09-.19h.05c12-1.54,16.58-8.12,18.34-13.28h0c-1.86,8.84-8.55,14.94-17.54,16.3a22.49,22.49,0,0,1-2.94.19H28.27a19.19,19.19,0,0,1-3.83-.26A26.52,26.52,0,0,1,2.22,70.19C7.38,77.5,12.72,83.86,28.27,84.32Z"/>
            <path class="cls-4"
                  d="M92.82,30.79a19.64,19.64,0,0,0-5.77.86A16.83,16.83,0,0,1,112.34,46.2c0,.51,0,1-.07,1.52A19.64,19.64,0,0,0,92.82,30.79Z"/>
            <path class="cls-5"
                  d="M239.78,88.41a38.83,38.83,0,0,0-24.59-36.12,46.94,46.94,0,0,0-93.53-4.39A26.54,26.54,0,0,0,81,70.39a26.75,26.75,0,0,0,.21,3.26A28.51,28.51,0,1,0,63.89,127.1a18.68,18.68,0,0,0,3.32.3H201.74a25.94,25.94,0,0,0,5.12-.37C225.88,124.53,239.78,108.12,239.78,88.41Z"/>
            <path class="cls-6"
                  d="M168.35,13.18c20.88,0,38.17,16.38,41.95,35.88a42,42,0,0,0-83-6.3C133.75,23.25,150.12,13.17,168.35,13.18Z"/>
            <path class="cls-7"
                  d="M200.64,123.26H68.44a16.12,16.12,0,0,1-2.9-.27h-.07c-16.57-2.13-23-11.24-25.39-18.39h0c2.58,12.25,11.84,20.68,24.29,22.57a31.18,31.18,0,0,0,4.08.26H200.64a26.56,26.56,0,0,0,5.31-.36c14.92-1.75,25.85-10.84,30.77-23.37C229.56,113.81,222.17,122.63,200.64,123.26Z"/>
            <path class="cls-8"
                  d="M111.26,49.14a27.19,27.19,0,0,1,8,1.19,23.3,23.3,0,0,0-35,20.14c0,.71,0,1.41.1,2.11A27.2,27.2,0,0,1,111.26,49.14Z"/>
            <ellipse class="cls-9" cx="132.13" cy="171.22" rx="127.5" ry="7.08"/>
            <path class="cls-10"
                  d="M153.38,136.32c0,8.37-7.74,14.89-16.19,14.9s-16.31-7-16.21-15c.1-8.37,9.35-19.32,16.49-31.6C144,117.11,153.38,127.94,153.38,136.32Z"/>
            <path class="cls-11"
                  d="M183.43,93.5c0,6.54-6,11.63-12.64,11.62s-12.73-5.46-12.65-11.7c.08-6.54,7.3-15.07,12.87-24.66C176.14,78.51,183.43,87,183.43,93.5Z"/>
            <path class="cls-12"
                  d="M121.19,96.44c0,5.38-5,9.57-10.4,9.56s-10.47-4.49-10.41-9.62c.07-5.38,6-12.41,10.59-20.29C115.19,84.1,121.19,91.06,121.19,96.44Z"/>
        </g>
    </g>
</svg>