<svg xmlns="http://www.w3.org/2000/svg" xmlns:xlink="http://www.w3.org/1999/xlink" viewBox="0 0 259.67 190.9">
    <defs>
        <style>
            .cls-1{fill:url(#linear-gradient);}.cls-2{fill:url(#linear-gradient-2);}.cls-3{fill:url(#linear-gradient-3);}.cls-4{fill:url(#linear-gradient-4);}.cls-5{fill:url(#linear-gradient-5);}.cls-6{fill:url(#linear-gradient-6);}.cls-7{fill:url(#linear-gradient-7);}.cls-8{fill:url(#linear-gradient-8);}.cls-9{fill:url(#linear-gradient-9);}.cls-10{fill:url(#linear-gradient-10);}.cls-11{fill:url(#radial-gradient);}.cls-12{fill:url(#linear-gradient-11);}
        </style>
        <linearGradient id="linear-gradient" x1="78.6" y1="-44.37" x2="67.27" y2="148.97"
                        gradientUnits="userSpaceOnUse">
            <stop offset="0" stop-color="#f0f0f0"/>
            <stop offset="0.21" stop-color="#eaeaea"/>
            <stop offset="0.5" stop-color="#d9d9d9"/>
            <stop offset="0.83" stop-color="#bdbdbd"/>
            <stop offset="1" stop-color="#ababab"/>
        </linearGradient>
        <linearGradient id="linear-gradient-2" x1="172.16" y1="12.69" x2="169.79" y2="45.58"
                        gradientTransform="matrix(-1, 0, 0, 1, 222.29, 0)" gradientUnits="userSpaceOnUse">
            <stop offset="0" stop-color="#fff"/>
            <stop offset="1" stop-color="#f0f0f0"/>
        </linearGradient>
        <linearGradient id="linear-gradient-3" x1="148.83" y1="59.86" x2="149.72" y2="98.22"
                        gradientTransform="matrix(-1, 0, 0, 1, 222.29, 0)" xlink:href="#linear-gradient"/>
        <linearGradient id="linear-gradient-4" x1="120.38" y1="36.48" x2="124.58" y2="42.46"
                        xlink:href="#linear-gradient-2"/>
        <linearGradient id="linear-gradient-5" x1="76.04" y1="22.19" x2="57.29" y2="84.69"
                        gradientUnits="userSpaceOnUse">
            <stop offset="0" stop-color="#5cedff"/>
            <stop offset="1" stop-color="#0a96ff"/>
        </linearGradient>
        <linearGradient id="linear-gradient-6" x1="137.71" y1="103.41" x2="138.2" y2="152.56"
                        xlink:href="#linear-gradient"/>
        <linearGradient id="linear-gradient-7" x1="168.36" y1="27.56" x2="165.08" y2="73.1"
                        gradientTransform="matrix(1, 0, 0, 1, 0, 0)" xlink:href="#linear-gradient-2"/>
        <linearGradient id="linear-gradient-8" x1="136.05" y1="92.88" x2="137.28" y2="146"
                        xlink:href="#linear-gradient"/>
        <linearGradient id="linear-gradient-9" x1="96.66" y1="60.5" x2="102.48" y2="68.77"
                        gradientTransform="matrix(1, 0, 0, 1, 0, 0)" xlink:href="#linear-gradient-2"/>
        <linearGradient id="linear-gradient-10" x1="194.27" y1="-10.8" x2="152.5" y2="128.44"
                        xlink:href="#linear-gradient-5"/>
        <radialGradient id="radial-gradient" cx="157.18" cy="-489.65" r="65.17"
                        gradientTransform="translate(-151.07 233.46) scale(1.8 0.1)" gradientUnits="userSpaceOnUse">
            <stop offset="0" stop-color="#969696"/>
            <stop offset="0" stop-color="#a3a3a3"/>
            <stop offset="0" stop-color="#a1a1a1"/>
            <stop offset="0" stop-color="#9a9a9a"/>
            <stop offset="0.11" stop-color="#ababab"/>
            <stop offset="0.22" stop-color="#b9b9b9"/>
            <stop offset="0.25" stop-color="#bcbcbc"/>
            <stop offset="0.57" stop-color="#e1e1e1"/>
            <stop offset="0.83" stop-color="#f7f7f7"/>
            <stop offset="1" stop-color="#fff"/>
        </radialGradient>
        <linearGradient id="linear-gradient-11" x1="100.36" y1="63.14" x2="70.93" y2="161.25"
                        xlink:href="#linear-gradient-5"/>
    </defs>
    <title>Asset 8</title>
    <g id="Layer_2" data-name="Layer 2">
        <g id="Layer_1-2" data-name="Layer 1">
            <path class="cls-1"
                  d="M0,59.16A28,28,0,0,1,17.76,33.07,33.9,33.9,0,0,1,85.3,29.9,19.15,19.15,0,0,1,114.5,48.49,20.59,20.59,0,1,1,127,87.1a13.56,13.56,0,0,1-2.4.22H27.48a18.77,18.77,0,0,1-3.7-.27C10,85.24,0,73.39,0,59.16Z"/>
            <path class="cls-2"
                  d="M51.58,4.82C36.5,4.82,24,16.65,21.29,30.73a30.35,30.35,0,0,1,60-4.55C76.58,12.1,64.75,4.82,51.58,4.82Z"/>
            <path class="cls-3"
                  d="M28.27,84.32h95.47a11.65,11.65,0,0,0,2.09-.19h.05c12-1.54,16.58-8.12,18.34-13.28h0c-1.86,8.84-8.55,14.94-17.54,16.3a22.4,22.4,0,0,1-2.94.19H28.27a19.15,19.15,0,0,1-3.83-.26A26.52,26.52,0,0,1,2.22,70.19C7.38,77.5,12.72,83.86,28.27,84.32Z"/>
            <path class="cls-4"
                  d="M92.82,30.79a19.62,19.62,0,0,0-5.77.86A16.83,16.83,0,0,1,112.34,46.2c0,.51,0,1-.07,1.52A19.64,19.64,0,0,0,92.82,30.79Z"/>
            <path class="cls-5"
                  d="M80.42,67.17,77.5,65.49l2.7,0a1.15,1.15,0,1,0,0-2.31l-6.56.11-4.46-2.57,4.72-2.72L79.28,59a1.15,1.15,0,0,0,.46-2.26L76.9,56.2l3.52-2a2.33,2.33,0,0,0-2.33-4l-2.93,1.69,1.33-2.23a1.15,1.15,0,0,0-2-1.18l-3.43,5.77-4.25,2.45v-5.7L70.33,46a1.15,1.15,0,0,0-1.88-1.34l-1.63,2.29V43.63a2.33,2.33,0,1,0-4.66,0V47l-1.6-2.25A1.15,1.15,0,0,0,58.68,46l3.48,4.91v5.68l-5.15-3-2-5.09a1.15,1.15,0,0,0-2.15.85l.94,2.39-2.9-1.68a2.33,2.33,0,0,0-2.33,4l2.94,1.7-3,.12a1.15,1.15,0,0,0,.09,2.31L55.26,58l4.57,2.64-4.92,2.84-6.13-.33a1.15,1.15,0,0,0-.12,2.3l2.59.14-2.68,1.55a2.33,2.33,0,0,0,2.33,4l3-1.76-1.13,2.73a1.15,1.15,0,0,0,2.13.88l2.27-5.5,4.95-2.85V71.3l-3.42,4.83a1.15,1.15,0,0,0,1.88,1.33l1.54-2.17v2.42a2.33,2.33,0,1,0,4.66,0V75.14l1.69,2.38a1.15,1.15,0,0,0,1.88-1.34l-3.57-5V64.7l4.87,2.81,1.94,5.26A1.15,1.15,0,1,0,75.8,72l-1-2.66,3.27,1.89a2.33,2.33,0,0,0,2.33-4ZM64.27,63.54a3,3,0,1,1,3-3A3,3,0,0,1,64.27,63.54Z"/>
            <path class="cls-6"
                  d="M237.79,91.9A38.83,38.83,0,0,0,213.2,55.78a46.94,46.94,0,0,0-93.53-4.39A26.54,26.54,0,0,0,79,73.88a26.74,26.74,0,0,0,.21,3.26,28.51,28.51,0,1,0-17.35,53.46,18.59,18.59,0,0,0,3.32.3H199.74a25.94,25.94,0,0,0,5.12-.37C223.88,128,237.79,111.61,237.79,91.9Z"/>
            <path class="cls-7"
                  d="M166.36,16.66c20.88,0,38.17,16.38,41.95,35.88a42,42,0,0,0-83-6.3C131.75,26.74,148.12,16.66,166.36,16.66Z"/>
            <path class="cls-8"
                  d="M198.64,126.75H66.44a16.12,16.12,0,0,1-2.9-.27h-.07c-16.57-2.13-23-11.24-25.39-18.39h0c2.58,12.25,11.84,20.68,24.29,22.57a31.36,31.36,0,0,0,4.08.26H198.64a26.56,26.56,0,0,0,5.31-.36c14.92-1.75,25.85-10.84,30.77-23.38C227.56,117.3,220.17,126.11,198.64,126.75Z"/>
            <path class="cls-9"
                  d="M109.26,52.62a27.22,27.22,0,0,1,8,1.19A23.3,23.3,0,0,0,82.23,74c0,.71,0,1.41.1,2.11A27.2,27.2,0,0,1,109.26,52.62Z"/>
            <path class="cls-10"
                  d="M204,89.42l-6.5-3.75,6-.1a2.57,2.57,0,1,0-.08-5.14l-14.61.23-9.93-5.73,10.52-6.07,12,2.43a2.57,2.57,0,1,0,1-5L196.19,65,204,60.43a5.19,5.19,0,1,0-5.19-9l-6.53,3.77,3-5a2.57,2.57,0,0,0-4.42-2.63l-7.64,12.86-9.47,5.46V53.22l7.82-11a2.57,2.57,0,0,0-4.19-3l-3.62,5.11V37a5.19,5.19,0,1,0-10.38,0v7.43l-3.56-5a2.57,2.57,0,0,0-4.19,3l7.75,10.94V65.93l-11.48-6.63L147.42,48a2.57,2.57,0,0,0-4.78,1.89l2.1,5.33-6.47-3.73a5.19,5.19,0,1,0-5.19,9l6.55,3.78-6.71.26a2.57,2.57,0,0,0,.2,5.14L148,69l10.18,5.88-11,6.33-13.66-.74a2.57,2.57,0,0,0-.28,5.13l5.78.31-6,3.45a5.19,5.19,0,1,0,5.19,9L145,94.49l-2.51,6.08a2.57,2.57,0,0,0,4.75,2l5.05-12.26,11-6.36V98.61l-7.62,10.75a2.57,2.57,0,1,0,4.2,3l3.43-4.84v5.4a5.19,5.19,0,0,0,10.38,0v-5.72l3.75,5.29a2.57,2.57,0,0,0,4.2-3l-7.95-11.21V83.92l10.84,6.26,4.32,11.73a2.57,2.57,0,1,0,4.82-1.78l-2.19-5.93,7.29,4.21a5.19,5.19,0,1,0,5.19-9Zm-36-8.1a6.72,6.72,0,1,1,6.72-6.72A6.73,6.73,0,0,1,168.06,81.32Z"/>
            <ellipse class="cls-11" cx="132.17" cy="183.82" rx="127.5" ry="7.08"/>
            <path class="cls-12"
                  d="M107.24,133.76l-4.58-2.64,4.24-.07a1.81,1.81,0,1,0-.06-3.62l-10.29.17-7-4L97,119.27l8.49,1.71a1.81,1.81,0,1,0,.72-3.55l-4.46-.9,5.53-3.19a3.66,3.66,0,1,0-3.66-6.33L99,109.65l2.08-3.5A1.81,1.81,0,0,0,98,104.3l-5.38,9.06-6.67,3.85v-9l5.51-7.77a1.81,1.81,0,0,0-3-2.1L85.9,102v-5.2a3.66,3.66,0,1,0-7.32,0V102l-2.51-3.54a1.81,1.81,0,0,0-3,2.1l5.46,7.71v8.92l-8.09-4.67-3.15-8A1.81,1.81,0,1,0,64,105.87l1.48,3.76L60.9,107a3.66,3.66,0,1,0-3.66,6.33L61.86,116l-4.73.18a1.81,1.81,0,1,0,.14,3.62l10.48-.4,7.18,4.14L67.2,128l-9.62-.52a1.81,1.81,0,0,0-.2,3.62l4.07.22-4.21,2.43a3.66,3.66,0,1,0,3.66,6.33l4.78-2.76-1.77,4.29A1.81,1.81,0,0,0,67.26,143l3.56-8.64,7.76-4.48v10.35l-5.37,7.57a1.81,1.81,0,1,0,3,2.1l2.42-3.41v3.8a3.66,3.66,0,1,0,7.32,0v-4L88.55,150a1.81,1.81,0,0,0,3-2.1L85.9,140V129.88l7.64,4.41,3,8.27a1.81,1.81,0,1,0,3.4-1.25l-1.54-4.18,5.14,3a3.66,3.66,0,1,0,3.66-6.33Zm-25.35-5.71a4.74,4.74,0,1,1,4.74-4.74A4.74,4.74,0,0,1,81.89,128.05Z"/>
        </g>
    </g>
</svg>