<svg xmlns="http://www.w3.org/2000/svg" xmlns:xlink="http://www.w3.org/1999/xlink" viewBox="0 0 232 193.85">
    <defs>
        <style>
            .cls-1{fill:url(#linear-gradient);}.cls-2{fill:url(#linear-gradient-2);}.cls-3{fill:url(#linear-gradient-3);}.cls-4{fill:url(#linear-gradient-4);}.cls-5{fill:url(#linear-gradient-5);}.cls-6{fill:url(#linear-gradient-6);}.cls-7{fill:url(#linear-gradient-7);}.cls-8{fill:url(#linear-gradient-8);}.cls-9{fill:url(#linear-gradient-9);}.cls-10{fill:url(#linear-gradient-10);}.cls-11{fill:url(#linear-gradient-11);}.cls-12{fill:url(#linear-gradient-12);}.cls-13{fill:url(#linear-gradient-13);}.cls-14{fill:url(#linear-gradient-14);}.cls-15{fill:url(#linear-gradient-15);}.cls-16{fill:url(#linear-gradient-16);}.cls-17{fill:url(#linear-gradient-17);}.cls-18{fill:url(#radial-gradient);}.cls-19{fill:url(#radial-gradient-2);}.cls-20{fill:url(#radial-gradient-3);}.cls-21{fill:url(#radial-gradient-4);}
        </style>
        <linearGradient id="linear-gradient" x1="49.81" y1="-10.09" x2="52.5" y2="79.75" gradientUnits="userSpaceOnUse">
            <stop offset="0" stop-color="#feff7f"/>
            <stop offset="0.25" stop-color="#feee72"/>
            <stop offset="0.75" stop-color="#ffc351"/>
            <stop offset="1" stop-color="#ffab3f"/>
        </linearGradient>
        <linearGradient id="linear-gradient-2" x1="36.77" y1="-52.27" x2="54.28" y2="68.9"
                        gradientUnits="userSpaceOnUse">
            <stop offset="0" stop-color="#feff7f"/>
            <stop offset="0.32" stop-color="#feef6e"/>
            <stop offset="0.95" stop-color="#ffc643"/>
            <stop offset="1" stop-color="#ffc23f"/>
        </linearGradient>
        <linearGradient id="linear-gradient-3" x1="51.12" y1="-11.73" x2="51.64" y2="51.86"
                        gradientUnits="userSpaceOnUse">
            <stop offset="0" stop-color="#feffe3"/>
            <stop offset="0.14" stop-color="#fefed2"/>
            <stop offset="0.43" stop-color="#fefca6"/>
            <stop offset="0.82" stop-color="#fff961"/>
            <stop offset="1" stop-color="#fff73f"/>
        </linearGradient>
        <linearGradient id="linear-gradient-4" x1="-453.6" y1="188.24" x2="-464.36" y2="215.42"
                        gradientTransform="translate(375.17 -372.73) rotate(-26.18)" xlink:href="#linear-gradient-2"/>
        <linearGradient id="linear-gradient-5" x1="-1151.38" y1="79.1" x2="-1162.14" y2="106.28"
                        gradientTransform="translate(486.93 -1048.3) rotate(-62.18)" xlink:href="#linear-gradient-2"/>
        <linearGradient id="linear-gradient-6" x1="-1651.37" y1="-419.61" x2="-1662.13" y2="-392.42"
                        gradientTransform="matrix(-0.14, -0.99, 0.99, -0.14, 180.67, -1660.17)"
                        xlink:href="#linear-gradient-2"/>
        <linearGradient id="linear-gradient-7" x1="-1764.07" y1="-1117.37" x2="-1774.82" y2="-1090.18"
                        gradientTransform="translate(-427.56 -1976.51) rotate(-134.18)"
                        xlink:href="#linear-gradient-2"/>
        <linearGradient id="linear-gradient-8" x1="-1444.25" y1="-1747.21" x2="-1455.01" y2="-1720.03"
                        gradientTransform="translate(-1104.68 -1873.74) rotate(-170.18)"
                        xlink:href="#linear-gradient-2"/>
        <linearGradient id="linear-gradient-9" x1="-816.08" y1="-2069.08" x2="-826.84" y2="-2041.89"
                        gradientTransform="translate(-1593.17 -1392.52) rotate(153.82)"
                        xlink:href="#linear-gradient-2"/>
        <linearGradient id="linear-gradient-10" x1="-117.87" y1="-1960.21" x2="-128.62" y2="-1933.02"
                        gradientTransform="translate(-1704.93 -716.94) rotate(117.82)" xlink:href="#linear-gradient-2"/>
        <linearGradient id="linear-gradient-11" x1="383.41" y1="-1462.11" x2="372.66" y2="-1434.93"
                        gradientTransform="matrix(0.14, 0.99, -0.99, 0.14, -1398.67, -105.08)"
                        xlink:href="#linear-gradient-2"/>
        <linearGradient id="linear-gradient-12" x1="494.73" y1="-764.69" x2="483.97" y2="-737.51"
                        gradientTransform="translate(-790.44 211.27) rotate(45.82)" xlink:href="#linear-gradient-2"/>
        <linearGradient id="linear-gradient-13" x1="175.97" y1="-134.12" x2="165.22" y2="-106.94"
                        gradientTransform="translate(-113.32 108.49) rotate(9.82)" xlink:href="#linear-gradient-2"/>
        <linearGradient id="linear-gradient-14" x1="110.51" y1="111.36" x2="111" y2="160.51"
                        gradientUnits="userSpaceOnUse">
            <stop offset="0" stop-color="#f0f0f0"/>
            <stop offset="0.21" stop-color="#eaeaea"/>
            <stop offset="0.5" stop-color="#d9d9d9"/>
            <stop offset="0.83" stop-color="#bdbdbd"/>
            <stop offset="1" stop-color="#ababab"/>
        </linearGradient>
        <linearGradient id="linear-gradient-15" x1="141.16" y1="35.5" x2="137.88" y2="81.05"
                        gradientUnits="userSpaceOnUse">
            <stop offset="0" stop-color="#fff"/>
            <stop offset="1" stop-color="#f0f0f0"/>
        </linearGradient>
        <linearGradient id="linear-gradient-16" x1="108.86" y1="100.83" x2="110.09" y2="153.95"
                        xlink:href="#linear-gradient-14"/>
        <linearGradient id="linear-gradient-17" x1="69.47" y1="68.45" x2="75.28" y2="76.72"
                        xlink:href="#linear-gradient-15"/>
        <radialGradient id="radial-gradient" cx="610.28" cy="956.11" r="69.33"
                        gradientTransform="translate(-78.37 -162.92) scale(0.33 0.33)" gradientUnits="userSpaceOnUse">
            <stop offset="0" stop-color="#b5ffff"/>
            <stop offset="1" stop-color="#0a96ff"/>
        </radialGradient>
        <radialGradient id="radial-gradient-2" cx="715.41" cy="831.01" r="54.11" xlink:href="#radial-gradient"/>
        <radialGradient id="radial-gradient-3" cx="535.76" cy="842.29" r="44.53" xlink:href="#radial-gradient"/>
        <radialGradient id="radial-gradient-4" cx="383.95" cy="-459.67" r="65.17"
                        gradientTransform="translate(-512.88 233.41) scale(1.64 0.1)" gradientUnits="userSpaceOnUse">
            <stop offset="0" stop-color="#969696"/>
            <stop offset="0" stop-color="#a3a3a3"/>
            <stop offset="0" stop-color="#a1a1a1"/>
            <stop offset="0" stop-color="#9a9a9a"/>
            <stop offset="0.11" stop-color="#ababab"/>
            <stop offset="0.22" stop-color="#b9b9b9"/>
            <stop offset="0.25" stop-color="#bcbcbc"/>
            <stop offset="0.57" stop-color="#e1e1e1"/>
            <stop offset="0.83" stop-color="#f7f7f7"/>
            <stop offset="1" stop-color="#fff"/>
        </radialGradient>
    </defs>
    <title>Asset 6</title>
    <g id="Layer_2" data-name="Layer 2">
        <g id="Layer_1-2" data-name="Layer 1">
            <circle class="cls-1" cx="51.61" cy="49.97" r="38.1"/>
            <path class="cls-2"
                  d="M13.06,50.42A38.55,38.55,0,0,1,51.61,11.87h0A38.55,38.55,0,0,1,90.16,50.42h0A38.55,38.55,0,0,1,51.61,89h0A38.55,38.55,0,0,1,13.06,50.42ZM25,23.79A37.54,37.54,0,0,0,14,50.42h0A37.53,37.53,0,0,0,25,77h0a37.54,37.54,0,0,0,26.63,11h0A37.54,37.54,0,0,0,78.23,77h0a37.53,37.53,0,0,0,11-26.63h0a37.54,37.54,0,0,0-11-26.63h0a37.53,37.53,0,0,0-26.63-11h0A37.54,37.54,0,0,0,25,23.79Z"/>
            <path class="cls-3"
                  d="M51.61,18.66A34.75,34.75,0,0,1,86,48.44a34.44,34.44,0,0,0-68.77,0A34.75,34.75,0,0,1,51.61,18.66Z"/>
            <path class="cls-4" d="M63.34,10.52a11.05,11.05,0,0,0-22.08.05A38.4,38.4,0,0,1,63.34,10.52Z"/>
            <path class="cls-5" d="M37.73,11.22a11.05,11.05,0,0,0-17.84,13A38.41,38.41,0,0,1,37.73,11.22Z"/>
            <path class="cls-6" d="M17.43,26.83a11.05,11.05,0,0,0-6.78,21A38.41,38.41,0,0,1,17.43,26.83Z"/>
            <path class="cls-7" d="M10.18,51.4a11.05,11.05,0,0,0,6.87,21A38.38,38.38,0,0,1,10.18,51.4Z"/>
            <path class="cls-8" d="M18.75,75.54a11.05,11.05,0,0,0,17.9,12.94A38.4,38.4,0,0,1,18.75,75.54Z"/>
            <path class="cls-9" d="M39.88,90A11.05,11.05,0,0,0,62,90,38.42,38.42,0,0,1,39.88,90Z"/>
            <path class="cls-10" d="M65.48,89.32a11.05,11.05,0,0,0,17.84-13A38.4,38.4,0,0,1,65.48,89.32Z"/>
            <path class="cls-11" d="M85.79,73.71a11.05,11.05,0,0,0,6.78-21A38.41,38.41,0,0,1,85.79,73.71Z"/>
            <path class="cls-12" d="M93,49.14a11.05,11.05,0,0,0-6.87-21A38.41,38.41,0,0,1,93,49.14Z"/>
            <path class="cls-13" d="M84.46,25A11.05,11.05,0,0,0,66.57,12.07,38.41,38.41,0,0,1,84.46,25Z"/>
            <path class="cls-14"
                  d="M210.59,99.85A38.83,38.83,0,0,0,186,63.73a46.94,46.94,0,0,0-93.53-4.39A26.54,26.54,0,0,0,51.84,81.83,26.76,26.76,0,0,0,52,85.08,28.51,28.51,0,1,0,34.7,138.54a18.59,18.59,0,0,0,3.32.3H172.54a25.93,25.93,0,0,0,5.12-.37C196.68,136,210.59,119.56,210.59,99.85Z"/>
            <path class="cls-15"
                  d="M139.16,24.61C160,24.61,177.33,41,181.1,60.49a42,42,0,0,0-83-6.3C104.55,34.68,120.92,24.61,139.16,24.61Z"/>
            <path class="cls-16"
                  d="M171.44,134.69H39.25a16.11,16.11,0,0,1-2.9-.27h-.07c-16.57-2.13-23-11.24-25.39-18.39h0c2.58,12.25,11.84,20.68,24.29,22.57a31.37,31.37,0,0,0,4.08.26H171.44a26.56,26.56,0,0,0,5.31-.36c14.92-1.75,25.85-10.84,30.77-23.38C200.36,125.25,193,134.06,171.44,134.69Z"/>
            <path class="cls-17"
                  d="M82.06,60.57a27.22,27.22,0,0,1,8,1.19A23.3,23.3,0,0,0,55,81.91c0,.71,0,1.41.1,2.11A27.2,27.2,0,0,1,82.06,60.57Z"/>
            <path class="cls-18"
                  d="M144.3,160.36c0,8.37-7.74,14.89-16.19,14.9s-16.31-7-16.21-15c.1-8.37,9.35-19.32,16.49-31.6C135,141.16,144.3,152,144.3,160.36Z"/>
            <path class="cls-19"
                  d="M174.35,117.55c0,6.54-6,11.62-12.64,11.62s-12.73-5.46-12.65-11.7c.08-6.54,7.3-15.08,12.87-24.66C167.06,102.56,174.35,111,174.35,117.55Z"/>
            <path class="cls-20"
                  d="M112.11,120.48c0,5.38-5,9.57-10.4,9.57s-10.47-4.49-10.41-9.62c.07-5.38,6-12.41,10.59-20.29C106.11,108.14,112.11,115.1,112.11,120.48Z"/>
            <ellipse class="cls-21" cx="116" cy="186.77" rx="116" ry="7.08"/>
        </g>
    </g>
</svg>