<svg xmlns="http://www.w3.org/2000/svg" xmlns:xlink="http://www.w3.org/1999/xlink" viewBox="0 0 195.28 197.52">
    <defs>
        <style>
            .cls-1{fill:url(#linear-gradient);}.cls-2{fill:url(#linear-gradient-2);}.cls-3{fill:url(#linear-gradient-3);}.cls-4{fill:url(#linear-gradient-4);}.cls-5{fill:url(#linear-gradient-5);}.cls-6{fill:url(#linear-gradient-6);}.cls-7{fill:url(#linear-gradient-7);}.cls-8{fill:url(#linear-gradient-8);}.cls-9{fill:url(#linear-gradient-9);}.cls-10{fill:url(#linear-gradient-10);}.cls-11{fill:url(#linear-gradient-11);}.cls-12{fill:url(#linear-gradient-12);}.cls-13{fill:url(#linear-gradient-13);}.cls-14{fill:url(#radial-gradient);}
        </style>
        <linearGradient id="linear-gradient" x1="95.42" y1="-13.62" x2="99.05" y2="107.62"
                        gradientUnits="userSpaceOnUse">
            <stop offset="0" stop-color="#feff7f"/>
            <stop offset="0.25" stop-color="#feee72"/>
            <stop offset="0.75" stop-color="#ffc351"/>
            <stop offset="1" stop-color="#ffab3f"/>
        </linearGradient>
        <linearGradient id="linear-gradient-2" x1="94.33" y1="10.34" x2="100.37" y2="109.5"
                        gradientUnits="userSpaceOnUse">
            <stop offset="0" stop-color="#feff7f"/>
            <stop offset="0.32" stop-color="#feef6e"/>
            <stop offset="0.95" stop-color="#ffc643"/>
            <stop offset="1" stop-color="#ffc23f"/>
        </linearGradient>
        <linearGradient id="linear-gradient-3" x1="97.34" y1="31.92" x2="98.15" y2="85.53"
                        gradientUnits="userSpaceOnUse">
            <stop offset="0" stop-color="#feffe3"/>
            <stop offset="0.14" stop-color="#fef9d2"/>
            <stop offset="0.43" stop-color="#fee8a6"/>
            <stop offset="0.82" stop-color="#ffce61"/>
            <stop offset="1" stop-color="#ffc23f"/>
        </linearGradient>
        <linearGradient id="linear-gradient-4" x1="-305.1" y1="236.15" x2="-319.61" y2="272.83"
                        gradientTransform="translate(266.84 -351.49) rotate(-26.18)" xlink:href="#linear-gradient-2"/>
        <linearGradient id="linear-gradient-5" x1="-926.29" y1="248.61" x2="-940.8" y2="285.29"
                        gradientTransform="translate(266.99 -925.93) rotate(-62.18)" xlink:href="#linear-gradient-2"/>
        <linearGradient id="linear-gradient-6" x1="-1435.78" y1="-106.71" x2="-1450.29" y2="-70.03"
                        gradientTransform="matrix(-0.14, -0.99, 0.99, -0.14, -70.12, -1390.39)"
                        xlink:href="#linear-gradient-2"/>
        <linearGradient id="linear-gradient-7" x1="-1640.46" y1="-694.05" x2="-1654.97" y2="-657.37"
                        gradientTransform="translate(-616.66 -1569.31) rotate(-134.18)"
                        xlink:href="#linear-gradient-2"/>
        <linearGradient id="linear-gradient-8" x1="-1459.96" y1="-1288.61" x2="-1474.47" y2="-1251.93"
                        gradientTransform="translate(-1163.11 -1391.65) rotate(-170.18)"
                        xlink:href="#linear-gradient-2"/>
        <linearGradient id="linear-gradient-9" x1="-965.24" y1="-1663.84" x2="-979.75" y2="-1627.16"
                        gradientTransform="translate(-1501.84 -926.64) rotate(153.82)" xlink:href="#linear-gradient-2"/>
        <linearGradient id="linear-gradient-10" x1="-343.61" y1="-1676.57" x2="-358.12" y2="-1639.88"
                        gradientTransform="translate(-1502 -352.2) rotate(117.82)" xlink:href="#linear-gradient-2"/>
        <linearGradient id="linear-gradient-11" x1="167.17" y1="-1321.86" x2="152.65" y2="-1285.18"
                        gradientTransform="matrix(0.14, 0.99, -0.99, 0.14, -1164.88, 112.26)"
                        xlink:href="#linear-gradient-2"/>
        <linearGradient id="linear-gradient-12" x1="370.47" y1="-734.86" x2="355.96" y2="-698.18"
                        gradientTransform="translate(-618.34 291.19) rotate(45.82)" xlink:href="#linear-gradient-2"/>
        <linearGradient id="linear-gradient-13" x1="191.02" y1="-139.58" x2="176.51" y2="-102.9"
                        gradientTransform="translate(-71.89 113.52) rotate(9.82)" xlink:href="#linear-gradient-2"/>
        <radialGradient id="radial-gradient" cx="375.77" cy="-2624.36" r="72.31"
                        gradientTransform="translate(-369.34 452.64) scale(1.24 0.1)" gradientUnits="userSpaceOnUse">
            <stop offset="0" stop-color="#969696"/>
            <stop offset="0" stop-color="#a3a3a3"/>
            <stop offset="0" stop-color="#a1a1a1"/>
            <stop offset="0" stop-color="#9a9a9a"/>
            <stop offset="0.11" stop-color="#ababab"/>
            <stop offset="0.22" stop-color="#b9b9b9"/>
            <stop offset="0.25" stop-color="#bcbcbc"/>
            <stop offset="0.57" stop-color="#e1e1e1"/>
            <stop offset="0.83" stop-color="#f7f7f7"/>
            <stop offset="1" stop-color="#fff"/>
        </radialGradient>
    </defs>
    <title>Asset 3</title>
    <g id="Layer_2" data-name="Layer 2">
        <g id="Layer_1-2" data-name="Layer 1">
            <circle class="cls-1" cx="97.84" cy="67.43" r="51.42"/>
            <path class="cls-2"
                  d="M45.82,68a52,52,0,0,1,52-52h0a52,52,0,0,1,52,52h0a52,52,0,0,1-52,52h0a52,52,0,0,1-52-52ZM61.91,32.11A50.65,50.65,0,0,0,47,68h0A50.64,50.64,0,0,0,61.91,104h0a50.64,50.64,0,0,0,35.93,14.88h0A50.65,50.65,0,0,0,133.78,104h0A50.64,50.64,0,0,0,148.66,68h0a50.65,50.65,0,0,0-14.88-35.93h0A50.65,50.65,0,0,0,97.84,17.22h0A50.65,50.65,0,0,0,61.91,32.11Z"/>
            <path class="cls-3"
                  d="M97.84,25.18a46.89,46.89,0,0,1,46.4,40.18,46.48,46.48,0,0,0-92.8,0A46.89,46.89,0,0,1,97.84,25.18Z"/>
            <path class="cls-4" d="M113.67,14.2a14.92,14.92,0,0,0-29.8.07A51.81,51.81,0,0,1,113.67,14.2Z"/>
            <path class="cls-5" d="M79.12,15.14A14.92,14.92,0,0,0,55.05,32.71,51.82,51.82,0,0,1,79.12,15.14Z"/>
            <path class="cls-6" d="M51.72,36.21a14.92,14.92,0,0,0-9.15,28.36A51.83,51.83,0,0,1,51.72,36.21Z"/>
            <path class="cls-7" d="M41.94,69.36a14.92,14.92,0,0,0,9.27,28.32A51.82,51.82,0,0,1,41.94,69.36Z"/>
            <path class="cls-8" d="M53.51,101.93a14.92,14.92,0,0,0,24.15,17.46A51.82,51.82,0,0,1,53.51,101.93Z"/>
            <path class="cls-9" d="M82,121.48a14.92,14.92,0,0,0,29.8-.07A51.83,51.83,0,0,1,82,121.48Z"/>
            <path class="cls-10" d="M116.57,120.54A14.92,14.92,0,0,0,140.64,103,51.81,51.81,0,0,1,116.57,120.54Z"/>
            <path class="cls-11" d="M144,99.47a14.92,14.92,0,0,0,9.14-28.36A51.82,51.82,0,0,1,144,99.47Z"/>
            <path class="cls-12" d="M153.75,66.31A14.92,14.92,0,0,0,144.48,38,51.81,51.81,0,0,1,153.75,66.31Z"/>
            <path class="cls-13" d="M142.18,33.74A14.92,14.92,0,0,0,118,16.28,51.82,51.82,0,0,1,142.18,33.74Z"/>
            <ellipse class="cls-14" cx="97.64" cy="189.66" rx="97.64" ry="7.86"/>
        </g>
    </g>
</svg>